<?xml version="1.0" encoding="UTF-8"?>
<svg xmlns="http://www.w3.org/2000/svg" xmlns:xlink="http://www.w3.org/1999/xlink" width="500px" height="273px" viewBox="0 0 500 273" version="1.1">
<defs>
<filter id="alpha" filterUnits="objectBoundingBox" x="0%" y="0%" width="100%" height="100%">
  <feColorMatrix type="matrix" in="SourceGraphic" values="0 0 0 0 1 0 0 0 0 1 0 0 0 0 1 0 0 0 1 0"/>
</filter>
<mask id="mask0">
  <g filter="url(#alpha)">
<rect x="0" y="0" width="500" height="273" style="fill:rgb(0%,0%,0%);fill-opacity:0.301961;stroke:none;"/>
  </g>
</mask>
<clipPath id="clip1">
  <rect x="0" y="0" width="501" height="273"/>
</clipPath>
<g id="surface5" clip-path="url(#clip1)">
<path style="fill:none;stroke-width:1.1556;stroke-linecap:round;stroke-linejoin:miter;stroke:rgb(100%,100%,100%);stroke-opacity:1;stroke-miterlimit:10;" d="M 2570.407187 779.538462 L 2562.464482 736.087912 C 2547.67917 655.428571 2477.38293 596.835165 2395.38165 596.835165 L 400.970605 596.835165 C 318.969326 596.835165 248.673086 655.428571 233.909775 736.087912 L 225.945068 779.538462 M 703.585469 759.736264 C 703.585469 819.846154 654.851143 868.593407 594.741807 868.593407 C 534.610469 868.593407 485.876143 819.846154 485.876143 759.736264 C 485.876143 699.604396 534.610469 650.857143 594.741807 650.857143 C 654.851143 650.857143 703.585469 699.604396 703.585469 759.736264 Z M 2309.464023 759.076923 C 2309.464023 819.208791 2260.707695 867.934066 2200.598359 867.934066 C 2140.467021 867.934066 2091.732695 819.208791 2091.732695 759.076923 C 2091.732695 698.945055 2140.467021 650.21978 2200.598359 650.21978 C 2260.707695 650.21978 2309.464023 698.945055 2309.464023 759.076923 Z M 2309.464023 759.076923 " transform="matrix(0.177541,0,0,0.177734,0.0221926,0)"/>
</g>
</defs>
<g id="surface1">
<path style="fill:none;stroke-width:6.1556;stroke-linecap:square;stroke-linejoin:miter;stroke:rgb(99.607843%,99.607843%,99.607843%);stroke-opacity:1;stroke-miterlimit:10;" d="M 302.071826 599.054945 C 302.071826 599.054945 317.539199 572.857143 374.502256 564.857143 C 414.281787 559.274725 586.425068 562.373626 586.425068 562.373626 C 586.425068 562.373626 606.49085 565.252747 606.49085 575.362637 M 2497.932754 599.054945 C 2497.932754 599.054945 2482.465381 572.857143 2425.480322 564.857143 C 2385.722793 559.274725 2213.579512 562.373626 2213.579512 562.373626 C 2213.579512 562.373626 2193.491729 565.252747 2193.491729 575.362637 M 229.487383 895.714286 L 335.00875 895.714286 C 357.736768 895.714286 376.174404 914.153846 376.174404 936.901099 L 376.174404 1095.736264 C 376.174404 1129.692308 386.669336 1162.835165 406.229072 1190.593407 L 589.703359 1451.010989 C 596.435957 1460.615385 600.066279 1472.043956 600.066279 1483.758242 M 2573.949502 895.714286 L 2468.428135 895.714286 C 2445.678115 895.714286 2427.240479 914.153846 2427.240479 936.901099 L 2427.240479 1095.736264 C 2427.240479 1129.692308 2416.745547 1162.835165 2397.185811 1190.593407 L 2213.733525 1451.010989 C 2206.978926 1460.615385 2203.348604 1472.043956 2203.348604 1483.758242 M 665.720107 1143.054945 L 481.431748 1143.054945 C 463.874189 1143.054945 449.660928 1128.813187 449.660928 1111.252747 L 449.660928 926.879121 C 449.660928 909.296703 463.874189 895.076923 481.431748 895.076923 L 665.676104 895.076923 C 683.233662 895.076923 697.446924 909.296703 697.446924 926.879121 L 697.446924 1111.252747 C 697.490928 1128.813187 683.233662 1143.054945 665.720107 1143.054945 Z M 672.584717 1241.538462 L 598.460137 1241.538462 C 584.708916 1241.538462 573.553926 1230.373626 573.553926 1216.615385 C 573.553926 1202.835165 584.708916 1191.67033 598.460137 1191.67033 L 672.584717 1191.67033 C 686.335937 1191.67033 697.490928 1202.835165 697.490928 1216.615385 C 697.490928 1230.373626 686.335937 1241.538462 672.584717 1241.538462 Z M 521.387295 643.362637 L 483.785957 643.362637 C 475.293203 643.362637 468.428594 636.461538 468.428594 628 C 468.428594 619.494505 475.337207 612.637363 483.785957 612.637363 L 521.387295 612.637363 C 529.880049 612.637363 536.744658 619.538462 536.744658 628 C 536.76666 636.461538 529.880049 643.362637 521.387295 643.362637 Z M 677.821182 758.373626 C 677.821182 801.89011 642.552051 837.186813 599.054189 837.186813 C 555.556328 837.186813 520.287197 801.89011 520.287197 758.373626 C 520.287197 714.835165 555.556328 679.538462 599.054189 679.538462 C 642.552051 679.538462 677.821182 714.835165 677.821182 758.373626 Z M 652.430928 759.802198 C 652.430928 789.912088 628.030762 814.32967 597.93209 814.32967 C 567.85542 814.32967 543.455254 789.912088 543.455254 759.802198 C 543.455254 729.692308 567.85542 705.274725 597.93209 705.274725 C 628.030762 705.274725 652.430928 729.692308 652.430928 759.802198 Z M 698.282998 1346.813187 L 680.219395 1346.813187 C 677.491152 1346.813187 675.246953 1344.571429 675.246953 1341.846154 C 675.246953 1339.098901 677.491152 1336.857143 680.219395 1336.857143 L 698.282998 1336.857143 C 701.01124 1336.857143 703.255439 1339.098901 703.255439 1341.846154 C 703.277441 1344.615385 701.055244 1346.813187 698.282998 1346.813187 Z M 663.893945 1346.813187 L 645.852344 1346.813187 C 643.1021 1346.813187 640.879902 1344.571429 640.879902 1341.846154 C 640.879902 1339.098901 643.1021 1336.857143 645.852344 1336.857143 L 663.893945 1336.857143 C 666.644189 1336.857143 668.888389 1339.098901 668.888389 1341.846154 C 668.888389 1344.615385 666.666191 1346.813187 663.893945 1346.813187 Z M 629.526895 1346.813187 L 611.485293 1346.813187 C 608.735049 1346.813187 606.512852 1344.571429 606.512852 1341.846154 C 606.512852 1339.098901 608.735049 1336.857143 611.485293 1336.857143 L 629.526895 1336.857143 C 632.277139 1336.857143 634.521338 1339.098901 634.521338 1341.846154 C 634.521338 1344.615385 632.277139 1346.813187 629.526895 1346.813187 Z M 698.282998 1297.78022 L 680.219395 1297.78022 C 677.491152 1297.78022 675.246953 1295.538462 675.246953 1292.791209 C 675.246953 1290.043956 677.491152 1287.802198 680.219395 1287.802198 L 698.282998 1287.802198 C 701.01124 1287.802198 703.255439 1290.043956 703.255439 1292.791209 C 703.277441 1295.538462 701.055244 1297.78022 698.282998 1297.78022 Z M 664.003955 1297.78022 L 645.962354 1297.78022 C 643.212109 1297.78022 640.989912 1295.538462 640.989912 1292.791209 C 640.989912 1290.043956 643.212109 1287.802198 645.962354 1287.802198 L 664.003955 1287.802198 C 666.754199 1287.802198 668.998398 1290.043956 668.998398 1292.791209 C 668.998398 1295.538462 666.754199 1297.78022 664.003955 1297.78022 Z M 629.70291 1297.78022 L 611.661309 1297.78022 C 608.911064 1297.78022 606.688867 1295.538462 606.688867 1292.791209 C 606.688867 1290.043956 608.911064 1287.802198 611.661309 1287.802198 L 629.70291 1287.802198 C 632.453154 1287.802198 634.697354 1290.043956 634.697354 1292.791209 C 634.697354 1295.538462 632.475156 1297.78022 629.70291 1297.78022 Z M 595.445869 1297.78022 L 577.382266 1297.78022 C 574.654023 1297.78022 572.409824 1295.538462 572.409824 1292.791209 C 572.409824 1290.043956 574.654023 1287.802198 577.382266 1287.802198 L 595.445869 1287.802198 C 598.196113 1287.802198 600.418311 1290.043956 600.418311 1292.791209 C 600.418311 1295.538462 598.196113 1297.78022 595.445869 1297.78022 Z M 698.282998 1322.285714 L 663.343896 1322.285714 C 660.593652 1322.285714 658.371455 1320.043956 658.371455 1317.296703 C 658.371455 1314.549451 660.593652 1312.307692 663.343896 1312.307692 L 698.282998 1312.307692 C 701.01124 1312.307692 703.255439 1314.549451 703.255439 1317.296703 C 703.277441 1320.065934 701.055244 1322.285714 698.282998 1322.285714 Z M 647.348477 1322.285714 L 629.284873 1322.285714 C 626.556631 1322.285714 624.312432 1320.043956 624.312432 1317.296703 C 624.312432 1314.549451 626.556631 1312.307692 629.284873 1312.307692 L 647.348477 1312.307692 C 650.076719 1312.307692 652.320918 1314.549451 652.320918 1317.296703 C 652.320918 1320.065934 650.076719 1322.285714 647.348477 1322.285714 Z M 612.255361 1322.285714 L 594.21376 1322.285714 C 591.463516 1322.285714 589.219316 1320.043956 589.219316 1317.296703 C 589.219316 1314.549451 591.463516 1312.307692 594.21376 1312.307692 L 612.255361 1312.307692 C 615.005605 1312.307692 617.227803 1314.549451 617.227803 1317.296703 C 617.227803 1320.065934 615.005605 1322.285714 612.255361 1322.285714 Z M 2139.366924 1143.054945 L 2323.611279 1143.054945 C 2341.168838 1143.054945 2355.3821 1128.813187 2355.3821 1111.252747 L 2355.3821 926.879121 C 2355.3821 909.296703 2341.168838 895.076923 2323.611279 895.076923 L 2139.366924 895.076923 C 2121.809365 895.076923 2107.574102 909.296703 2107.574102 926.879121 L 2107.574102 1111.252747 C 2107.574102 1128.813187 2121.809365 1143.054945 2139.366924 1143.054945 Z M 2132.502314 1241.538462 L 2206.604893 1241.538462 C 2220.356113 1241.538462 2231.511104 1230.373626 2231.511104 1216.615385 C 2231.511104 1202.835165 2220.356113 1191.67033 2206.604893 1191.67033 L 2132.502314 1191.67033 C 2118.751094 1191.67033 2107.574102 1202.835165 2107.574102 1216.615385 C 2107.574102 1230.373626 2118.751094 1241.538462 2132.502314 1241.538462 Z M 2283.655732 643.362637 L 2321.25707 643.362637 C 2329.749824 643.362637 2336.614434 636.461538 2336.614434 628 C 2336.614434 619.494505 2329.70582 612.637363 2321.25707 612.637363 L 2283.655732 612.637363 C 2275.162979 612.637363 2268.298369 619.538462 2268.298369 628 C 2268.298369 636.461538 2275.162979 643.362637 2283.655732 643.362637 Z M 2282.489629 759.626374 C 2282.489629 803.164835 2247.220498 838.43956 2203.722637 838.43956 C 2160.224775 838.43956 2124.955645 803.164835 2124.955645 759.626374 C 2124.955645 716.10989 2160.224775 680.813187 2203.722637 680.813187 C 2247.220498 680.813187 2282.489629 716.10989 2282.489629 759.626374 Z M 2258.683516 759.626374 C 2258.683516 789.736264 2234.28335 814.153846 2204.184678 814.153846 C 2174.086006 814.153846 2149.707842 789.736264 2149.707842 759.626374 C 2149.707842 729.516484 2174.086006 705.098901 2204.184678 705.098901 C 2234.28335 705.098901 2258.683516 729.516484 2258.683516 759.626374 Z M 2106.760029 1346.813187 L 2124.823633 1346.813187 C 2127.551875 1346.813187 2129.796074 1344.571429 2129.796074 1341.846154 C 2129.796074 1339.098901 2127.551875 1336.857143 2124.823633 1336.857143 L 2106.760029 1336.857143 C 2104.031787 1336.857143 2101.787588 1339.098901 2101.787588 1341.846154 C 2101.787588 1344.615385 2103.987783 1346.813187 2106.760029 1346.813187 Z M 2141.12708 1346.813187 L 2159.190684 1346.813187 C 2161.918926 1346.813187 2164.163125 1344.571429 2164.163125 1341.846154 C 2164.163125 1339.098901 2161.918926 1336.857143 2159.190684 1336.857143 L 2141.12708 1336.857143 C 2138.398838 1336.857143 2136.154639 1339.098901 2136.154639 1341.846154 C 2136.154639 1344.615385 2138.398838 1346.813187 2141.12708 1346.813187 Z M 2175.538135 1346.813187 L 2193.601738 1346.813187 C 2196.32998 1346.813187 2198.57418 1344.571429 2198.57418 1341.846154 C 2198.57418 1339.098901 2196.32998 1336.857143 2193.601738 1336.857143 L 2175.538135 1336.857143 C 2172.809893 1336.857143 2170.565693 1339.098901 2170.565693 1341.846154 C 2170.521689 1344.615385 2172.765889 1346.813187 2175.538135 1346.813187 Z M 2106.760029 1297.78022 L 2124.823633 1297.78022 C 2127.551875 1297.78022 2129.796074 1295.538462 2129.796074 1292.791209 C 2129.796074 1290.043956 2127.551875 1287.802198 2124.823633 1287.802198 L 2106.760029 1287.802198 C 2104.031787 1287.802198 2101.787588 1290.043956 2101.787588 1292.791209 C 2101.787588 1295.538462 2103.987783 1297.78022 2106.760029 1297.78022 Z M 2141.039072 1297.78022 L 2159.080674 1297.78022 C 2161.830918 1297.78022 2164.053115 1295.538462 2164.053115 1292.791209 C 2164.053115 1290.043956 2161.830918 1287.802198 2159.080674 1287.802198 L 2141.039072 1287.802198 C 2138.288828 1287.802198 2136.044629 1290.043956 2136.044629 1292.791209 C 2136.044629 1295.538462 2138.288828 1297.78022 2141.039072 1297.78022 Z M 2175.340117 1297.78022 L 2193.381719 1297.78022 C 2196.131963 1297.78022 2198.35416 1295.538462 2198.35416 1292.791209 C 2198.35416 1290.043956 2196.131963 1287.802198 2193.381719 1287.802198 L 2175.340117 1287.802198 C 2172.589873 1287.802198 2170.345674 1290.043956 2170.345674 1292.791209 C 2170.345674 1295.538462 2172.589873 1297.78022 2175.340117 1297.78022 Z M 2209.61916 1297.78022 L 2227.682764 1297.78022 C 2230.411006 1297.78022 2232.655205 1295.538462 2232.655205 1292.791209 C 2232.655205 1290.043956 2230.411006 1287.802198 2227.682764 1287.802198 L 2209.61916 1287.802198 C 2206.890918 1287.802198 2204.646719 1290.043956 2204.646719 1292.791209 C 2204.646719 1295.538462 2206.846914 1297.78022 2209.61916 1297.78022 Z M 2106.760029 1322.285714 L 2141.699131 1322.285714 C 2144.449375 1322.285714 2146.671572 1320.043956 2146.671572 1317.296703 C 2146.671572 1314.549451 2144.449375 1312.307692 2141.699131 1312.307692 L 2106.760029 1312.307692 C 2104.031787 1312.307692 2101.787588 1314.549451 2101.787588 1317.296703 C 2101.787588 1320.065934 2103.987783 1322.285714 2106.760029 1322.285714 Z M 2157.738555 1322.285714 L 2175.802158 1322.285714 C 2178.5304 1322.285714 2180.7746 1320.043956 2180.7746 1317.296703 C 2180.7746 1314.549451 2178.5304 1312.307692 2175.802158 1312.307692 L 2157.738555 1312.307692 C 2154.988311 1312.307692 2152.766113 1314.549451 2152.766113 1317.296703 C 2152.722109 1320.065934 2154.966309 1322.285714 2157.738555 1322.285714 Z M 2192.809668 1322.285714 L 2210.873271 1322.285714 C 2213.601514 1322.285714 2215.845713 1320.043956 2215.845713 1317.296703 C 2215.845713 1314.549451 2213.601514 1312.307692 2210.873271 1312.307692 L 2192.809668 1312.307692 C 2190.081426 1312.307692 2187.837227 1314.549451 2187.837227 1317.296703 C 2187.837227 1320.065934 2190.037422 1322.285714 2192.809668 1322.285714 Z M 2468.428135 652.527473 C 2468.428135 671.714286 2452.872754 687.274725 2433.687051 687.274725 C 2414.501348 687.274725 2398.945967 671.714286 2398.945967 652.527473 C 2398.945967 633.340659 2414.501348 617.78022 2433.687051 617.78022 C 2452.872754 617.78022 2468.428135 633.340659 2468.428135 652.527473 Z M 2468.428135 790.32967 C 2468.428135 809.516484 2452.872754 825.054945 2433.687051 825.054945 C 2414.501348 825.054945 2398.945967 809.516484 2398.945967 790.32967 C 2398.945967 771.142857 2414.501348 755.582418 2433.687051 755.582418 C 2452.872754 755.582418 2468.428135 771.142857 2468.428135 790.32967 Z M 2536.634189 722 C 2536.634189 741.186813 2521.056807 756.747253 2501.871104 756.747253 C 2482.6854 756.747253 2467.13002 741.186813 2467.13002 722 C 2467.13002 702.813187 2482.6854 687.274725 2501.871104 687.274725 C 2521.056807 687.274725 2536.634189 702.813187 2536.634189 722 Z M 2398.945967 722 C 2398.945967 741.186813 2383.390586 756.747253 2364.204883 756.747253 C 2345.01918 756.747253 2329.463799 741.186813 2329.463799 722 C 2329.463799 702.813187 2345.01918 687.274725 2364.204883 687.274725 C 2383.390586 687.274725 2398.945967 702.813187 2398.945967 722 Z M 2070.390801 1449.802198 L 731.98999 1449.802198 C 727.325576 1449.802198 723.607246 1446.021978 723.607246 1441.406593 L 723.607246 622.417582 C 723.607246 617.758242 727.36958 614.021978 731.98999 614.021978 L 2070.346797 614.021978 C 2075.011211 614.021978 2078.729541 617.802198 2078.729541 622.417582 L 2078.729541 1441.406593 C 2078.773545 1446.021978 2075.011211 1449.802198 2070.390801 1449.802198 Z M 780.76832 636.175824 L 2026.958945 636.175824 L 2026.958945 1419.648352 L 780.76832 1419.648352 Z M 292.676992 744.813187 C 288.364609 729.032967 288.364609 712.395604 292.676992 696.637363 C 293.359053 694.131868 295.625254 692.417582 298.199482 692.417582 L 337.582979 692.417582 C 343.259482 692.417582 347.857891 687.802198 347.857891 682.10989 L 347.857891 642.747253 C 347.857891 640.153846 349.596045 637.89011 352.082266 637.230769 C 367.857666 632.923077 384.491143 632.923077 400.266543 637.230769 C 402.752764 637.89011 404.490918 640.153846 404.490918 642.747253 L 404.490918 682.10989 C 404.490918 687.802198 409.089326 692.417582 414.787832 692.417582 L 454.149326 692.417582 C 456.745557 692.417582 458.989756 694.131868 459.671816 696.637363 C 463.984199 712.395604 463.984199 729.032967 459.671816 744.813187 C 458.989756 747.296703 456.745557 749.032967 454.149326 749.032967 L 414.787832 749.032967 C 409.089326 749.032967 404.490918 753.648352 404.490918 759.318681 L 404.490918 798.703297 C 404.490918 801.274725 402.752764 803.538462 400.266543 804.21978 C 384.491143 808.527473 367.857666 808.527473 352.082266 804.21978 C 349.596045 803.538462 347.857891 801.274725 347.857891 798.703297 L 347.857891 759.318681 C 347.857891 753.648352 343.259482 749.032967 337.582979 749.032967 L 298.199482 749.032967 C 295.625254 749.032967 293.359053 747.296703 292.676992 744.813187 Z M 292.676992 744.813187 " transform="matrix(0.177541,0,0,0.177734,0.0221926,0)"/>
<path style="fill:none;stroke-width:3.4668;stroke-linecap:round;stroke-linejoin:miter;stroke:rgb(100%,100%,100%);stroke-opacity:1;stroke-miterlimit:4;" d="M 229.047344 870.901099 C 227.639219 746.10989 226.935156 683.714286 258.331943 639.89011 C 268.474844 625.736264 280.773936 613.274725 294.811182 602.967033 C 338.309043 571.076923 400.706582 571.076923 525.479658 571.076923 L 2272.852773 571.076923 C 2397.647852 571.076923 2460.045391 571.076923 2503.52125 602.967033 C 2517.558496 613.274725 2529.87959 625.736264 2540.000488 639.89011 C 2571.419277 683.714286 2570.715215 746.10989 2569.30709 870.901099 L 2566.930879 1081.626374 C 2565.038711 1249.714286 2564.092627 1333.78022 2520.770781 1392.549451 C 2506.777539 1411.56044 2489.902041 1428.241758 2470.73834 1442.021978 C 2411.48708 1484.681319 2327.417617 1484.681319 2159.322695 1484.681319 L 639.031738 1484.681319 C 470.914814 1484.681319 386.867354 1484.681319 327.594092 1442.021978 C 308.452393 1428.241758 291.576895 1411.56044 277.56165 1392.549451 C 234.261807 1333.78022 233.315723 1249.714286 231.401553 1081.626374 Z M 229.047344 870.901099 " transform="matrix(0.177541,0,0,0.177734,0.0221926,0)"/>
<use xlink:href="#surface5" mask="url(#mask0)"/>
<path style="fill-rule:nonzero;fill:rgb(92.941177%,81.568629%,10.588235%);fill-opacity:1;stroke-width:8;stroke-linecap:butt;stroke-linejoin:miter;stroke:rgb(100%,100%,100%);stroke-opacity:1;stroke-miterlimit:4;" d="M 1842.736592 713.868132 L 1594.66457 713.868132 L 1594.66457 406.065934 L 1212.710664 406.065934 L 1212.710664 714.879121 L 961.9104 714.879121 L 1401.817451 1071.120879 Z M 1842.736592 713.868132 " transform="matrix(0.177541,0,0,0.177734,0.0221926,0)"/>
<path style=" stroke:none;fill-rule:evenodd;fill:rgb(100%,100%,100%);fill-opacity:1;" d="M 273.890625 71.804688 L 259.117188 58.398438 C 261.328125 55.953125 262.546875 52.84375 262.546875 49.535156 C 262.546875 43.6875 258.800781 38.636719 253.320312 36.90625 L 253.320312 34.324219 L 263.570312 26.859375 C 264.039062 26.519531 264.230469 25.921875 264.054688 25.371094 L 258.914062 9.523438 C 258.742188 8.972656 258.230469 8.601562 257.652344 8.601562 L 241.011719 8.601562 C 240.4375 8.601562 239.921875 8.972656 239.746094 9.519531 L 234.605469 25.367188 C 234.429688 25.917969 234.621094 26.519531 235.089844 26.855469 L 245.339844 34.320312 L 245.339844 38.535156 C 245.339844 41.390625 247.417969 43.847656 250.28125 44.378906 C 252.765625 44.820312 254.5625 46.988281 254.5625 49.53125 C 254.5625 50.835938 254.070312 52.058594 253.199219 53.019531 L 252.941406 52.785156 C 250.882812 50.914062 247.777344 50.917969 245.722656 52.785156 L 245.480469 53 C 244.636719 52.066406 244.101562 50.847656 244.101562 49.527344 C 244.101562 49.191406 244.132812 48.832031 244.210938 48.421875 C 244.289062 48 244.152344 47.5625 243.851562 47.253906 L 239.753906 43.066406 C 239.457031 42.761719 239.027344 42.621094 238.605469 42.679688 C 238.1875 42.742188 237.820312 43.003906 237.621094 43.378906 C 236.632812 45.269531 236.113281 47.398438 236.113281 49.546875 C 236.117188 52.878906 237.460938 55.976562 239.605469 58.339844 L 224.6875 71.882812 L 228.65625 71.875 L 241.585938 60.140625 C 243.710938 61.722656 246.292969 62.695312 249.046875 62.75 C 249.175781 62.769531 249.269531 62.769531 249.332031 62.769531 C 252.175781 62.769531 254.882812 61.855469 257.136719 60.195312 L 269.9375 71.8125 Z M 256.683594 11.269531 L 241.976562 11.269531 L 237.4375 25.277344 L 247.101562 32.316406 L 251.558594 32.316406 L 261.222656 25.277344 Z M 249.332031 15.476562 C 252.59375 15.476562 255.25 18.136719 255.25 21.402344 C 255.25 24.667969 252.59375 27.328125 249.332031 27.328125 C 246.070312 27.328125 243.414062 24.667969 243.414062 21.402344 C 243.414062 18.136719 246.070312 15.476562 249.332031 15.476562 Z M 249.332031 18.140625 C 247.53125 18.140625 246.074219 19.605469 246.074219 21.402344 C 246.074219 23.199219 247.535156 24.660156 249.332031 24.660156 C 251.125 24.660156 252.589844 23.199219 252.589844 21.402344 C 252.589844 19.601562 251.125 18.140625 249.332031 18.140625 Z M 248.003906 38.539062 C 248.003906 40.105469 249.164062 41.464844 250.761719 41.757812 C 254.503906 42.429688 257.226562 45.699219 257.226562 49.53125 C 257.226562 51.65625 256.394531 53.65625 254.878906 55.15625 C 253.375 56.628906 251.332031 57.453125 249.21875 57.421875 C 247.9375 57.40625 246.71875 57.058594 245.636719 56.46875 L 243.59375 58.320312 C 245.222656 59.40625 247.140625 60.058594 249.179688 60.085938 C 249.261719 60.085938 249.347656 60.097656 249.429688 60.113281 C 252.125 60.097656 254.753906 59.011719 256.746094 57.042969 C 258.777344 55.039062 259.890625 52.371094 259.890625 49.53125 C 259.890625 44.574219 256.523438 40.335938 251.699219 39.222656 C 251.097656 39.082031 250.667969 38.546875 250.667969 37.921875 L 250.667969 34.976562 L 248.003906 34.976562 Z M 239.253906 46.371094 C 238.9375 47.394531 238.773438 48.46875 238.773438 49.546875 C 238.78125 52.207031 239.851562 54.679688 241.566406 56.566406 L 243.519531 54.789062 C 242.238281 53.378906 241.4375 51.527344 241.4375 49.535156 C 241.4375 49.246094 241.453125 48.953125 241.488281 48.648438 Z M 249.25 54.757812 C 249.796875 54.773438 250.320312 54.679688 250.832031 54.523438 C 249.925781 53.914062 248.753906 53.910156 247.839844 54.511719 C 248.296875 54.65625 248.761719 54.753906 249.25 54.757812 Z M 249.25 54.757812 "/>
</g>
</svg>
